<?xml version="1.0" standalone="no"?>
<!DOCTYPE svg PUBLIC "-//W3C//DTD SVG 20010904//EN"
 "http://www.w3.org/TR/2001/REC-SVG-20010904/DTD/svg10.dtd">
<svg version="1.0" xmlns="http://www.w3.org/2000/svg"
 width="48.000000pt" height="48.000000pt" viewBox="0 0 48.000000 48.000000"
 preserveAspectRatio="xMidYMid meet">
<metadata>
Created by potrace 1.10, written by Peter Selinger 2001-2011
</metadata>
<g transform="translate(0.000000,48.000000) scale(0.100000,-0.100000)"
fill="#3399cc" stroke="none">
<path d="M165 471 c-11 -5 -31 -21 -45 -36 -35 -37 -36 -131 -2 -167 12 -14
22 -36 22 -49 0 -22 -8 -28 -54 -42 -65 -21 -77 -34 -84 -92 l-5 -45 117 0
c71 0 116 4 116 10 0 6 -42 10 -105 10 l-105 0 0 28 c0 36 21 55 88 77 41 13
52 21 52 38 0 19 6 22 40 22 31 0 40 -4 40 -17 0 -10 5 -18 10 -18 6 0 10 11
10 25 0 13 11 41 25 61 39 57 30 129 -22 176 -24 22 -71 31 -98 19z m81 -29
c20 -15 44 -52 44 -66 0 -14 -39 -4 -55 14 -17 19 -18 19 -43 0 -22 -18 -82
-28 -82 -14 0 33 54 84 90 84 14 0 35 -8 46 -18z m23 -92 c20 0 22 -4 16 -27
-15 -64 -55 -93 -110 -79 -28 7 -65 59 -65 92 0 17 5 20 24 17 13 -3 37 2 52
10 25 13 31 13 45 1 8 -8 26 -14 38 -14z"/>
<path d="M318 204 c-31 -16 -58 -61 -58 -96 0 -13 9 -37 20 -55 43 -71 154
-63 186 14 41 96 -57 187 -148 137z m113 -33 c20 -20 29 -39 29 -61 0 -43 -47
-90 -90 -90 -43 0 -90 47 -90 90 0 43 47 90 90 90 22 0 41 -9 61 -29z"/>
<path d="M360 140 c0 -13 -7 -20 -20 -20 -11 0 -20 -4 -20 -10 0 -5 9 -10 20
-10 13 0 20 -7 20 -20 0 -11 5 -20 10 -20 6 0 10 9 10 20 0 13 7 20 20 20 11
0 20 5 20 10 0 6 -9 10 -20 10 -13 0 -20 7 -20 20 0 11 -4 20 -10 20 -5 0 -10
-9 -10 -20z"/>
</g>
</svg>
