<?xml version="1.0" standalone="no"?>
<!DOCTYPE svg PUBLIC "-//W3C//DTD SVG 20010904//EN"
 "http://www.w3.org/TR/2001/REC-SVG-20010904/DTD/svg10.dtd">
<svg version="1.0" xmlns="http://www.w3.org/2000/svg"
 width="50.000000pt" height="36.000000pt" viewBox="0 0 50.000000 36.000000"
 preserveAspectRatio="xMidYMid meet">
<metadata>
Created by potrace 1.10, written by Peter Selinger 2001-2011
</metadata>
<g transform="translate(0.000000,36.000000) scale(0.100000,-0.100000)"
fill="#3399cc" stroke="none">
<path d="M226 348 c-22 -6 -54 -27 -76 -49 -25 -26 -47 -39 -64 -39 -39 0 -66
-33 -66 -80 0 -49 27 -80 69 -80 21 0 36 -8 50 -29 23 -32 67 -56 124 -66 l37
-7 0 181 c0 202 5 190 -74 169z m54 -168 c0 -121 -3 -160 -12 -160 -30 1 -97
40 -117 69 -17 24 -30 31 -55 31 -41 0 -56 15 -56 60 0 45 15 60 56 60 25 0
38 7 55 31 20 29 87 68 117 69 9 0 12 -39 12 -160z"/>
<path d="M410 324 c0 -4 13 -21 30 -40 53 -61 52 -148 -2 -210 -17 -19 -27
-38 -23 -42 4 -4 22 10 40 31 56 64 57 166 3 231 -27 33 -48 46 -48 30z"/>
<path d="M380 290 c0 -5 6 -13 13 -17 62 -38 61 -142 -3 -190 -8 -6 -12 -15
-8 -19 10 -9 46 23 64 58 26 51 16 106 -29 156 -21 23 -37 29 -37 12z"/>
<path d="M350 265 c0 -2 11 -15 25 -29 33 -33 33 -79 -1 -113 -27 -27 -27 -37
0 -27 20 8 46 55 46 84 0 29 -26 76 -45 84 -20 7 -25 8 -25 1z"/>
</g>
</svg>
