<?xml version="1.0" standalone="no"?>
<!DOCTYPE svg PUBLIC "-//W3C//DTD SVG 20010904//EN"
 "http://www.w3.org/TR/2001/REC-SVG-20010904/DTD/svg10.dtd">
<svg version="1.0" xmlns="http://www.w3.org/2000/svg"
 width="48.000000pt" height="48.000000pt" viewBox="0 0 48.000000 48.000000"
 preserveAspectRatio="xMidYMid meet">
<metadata>
Created by potrace 1.10, written by Peter Selinger 2001-2011
</metadata>
<g transform="translate(0.000000,48.000000) scale(0.100000,-0.100000)"
fill="#5295b8" stroke="none">
<path d="M240 472 c0 -5 17 -12 38 -15 81 -13 166 -98 179 -179 3 -21 10 -38
15 -38 13 0 -1 68 -22 110 -21 41 -63 82 -105 103 -39 19 -105 31 -105 19z"/>
<path d="M44 385 c-12 -8 -27 -28 -33 -44 -19 -45 8 -91 123 -207 116 -115
162 -142 207 -123 34 13 59 45 59 72 0 11 -15 34 -34 53 -34 34 -72 44 -92 24
-8 -8 -28 6 -68 46 -40 40 -54 60 -46 68 20 20 10 58 -24 92 -37 37 -60 42
-92 19z m79 -33 c30 -31 33 -43 15 -72 -12 -18 -6 -27 55 -87 60 -61 69 -67
87 -55 11 6 25 12 32 12 19 0 68 -52 68 -71 0 -20 -45 -59 -68 -59 -51 0 -292
241 -292 292 0 23 39 68 59 68 9 0 29 -13 44 -28z"/>
<path d="M240 393 c0 -6 14 -13 31 -17 40 -8 97 -65 105 -105 4 -17 11 -31 17
-31 14 0 0 61 -21 89 -10 14 -29 33 -43 43 -28 21 -89 35 -89 21z"/>
<path d="M240 312 c0 -5 11 -14 24 -20 13 -6 27 -20 31 -31 7 -24 25 -28 25
-6 0 20 -45 65 -65 65 -8 0 -15 -4 -15 -8z"/>
</g>
</svg>
