<?xml version="1.0" standalone="no"?>
<!DOCTYPE svg PUBLIC "-//W3C//DTD SVG 20010904//EN"
 "http://www.w3.org/TR/2001/REC-SVG-20010904/DTD/svg10.dtd">
<svg version="1.0" xmlns="http://www.w3.org/2000/svg"
 width="46.000000pt" height="46.000000pt" viewBox="0 0 46.000000 46.000000"
 preserveAspectRatio="xMidYMid meet">
<metadata>
Created by potrace 1.10, written by Peter Selinger 2001-2011
</metadata>
<g transform="translate(0.000000,46.000000) scale(0.100000,-0.100000)"
fill="#3399cc" stroke="none">
<path d="M280 360 l0 -100 40 0 40 0 0 100 0 100 -40 0 -40 0 0 -100z m60 0
c0 -73 -2 -80 -20 -80 -18 0 -20 7 -20 80 0 73 2 80 20 80 18 0 20 -7 20 -80z"/>
<path d="M380 361 l0 -101 40 0 41 0 -3 98 -3 97 -37 3 -38 3 0 -100z m60 -1
c0 -73 -2 -80 -20 -80 -18 0 -20 7 -20 80 0 73 2 80 20 80 18 0 20 -7 20 -80z"/>
<path d="M44 385 c-12 -8 -27 -28 -33 -44 -11 -25 -10 -35 5 -68 22 -47 205
-231 257 -258 37 -20 38 -20 75 0 53 29 63 64 28 109 -30 40 -69 55 -97 38
-15 -10 -26 -3 -74 45 -39 39 -53 59 -45 67 21 21 10 58 -26 92 -39 37 -59 41
-90 19z m79 -33 c30 -31 33 -43 15 -72 -11 -18 -5 -27 57 -90 62 -62 71 -68
85 -55 9 8 23 15 30 15 20 0 70 -51 70 -71 0 -20 -45 -59 -68 -59 -51 0 -292
241 -292 292 0 23 39 68 59 68 9 0 29 -13 44 -28z"/>
</g>
</svg>
