<?xml version="1.0" standalone="no"?>
<!DOCTYPE svg PUBLIC "-//W3C//DTD SVG 20010904//EN"
 "http://www.w3.org/TR/2001/REC-SVG-20010904/DTD/svg10.dtd">
<svg version="1.0" xmlns="http://www.w3.org/2000/svg"
 width="48.000000pt" height="48.000000pt" viewBox="0 0 48.000000 48.000000"
 preserveAspectRatio="xMidYMid meet">
<metadata>
Created by potrace 1.10, written by Peter Selinger 2001-2011
</metadata>
<g transform="translate(0.000000,48.000000) scale(0.100000,-0.100000)"
fill="#3399cc" stroke="none">
<path d="M203 469 c-32 -9 -81 -64 -69 -77 4 -3 17 6 29 20 41 49 86 60 137
33 50 -26 63 -65 58 -177 -2 -54 -1 -98 3 -98 22 0 26 183 5 235 -24 57 -95
85 -163 64z"/>
<path d="M10 462 c0 -14 449 -456 457 -449 7 8 -435 457 -449 457 -5 0 -8 -3
-8 -8z"/>
<path d="M120 250 c0 -54 22 -104 55 -126 29 -19 116 -26 112 -9 -1 5 -14 8
-29 6 -64 -6 -118 53 -118 129 0 22 -4 40 -10 40 -5 0 -10 -18 -10 -40z"/>
<path d="M80 238 c0 -82 55 -154 133 -173 22 -6 27 -13 27 -36 0 -16 5 -29 10
-29 6 0 10 13 10 28 0 25 6 30 40 41 22 6 40 17 40 23 0 6 -9 8 -22 3 -117
-38 -206 16 -216 132 -5 63 -22 72 -22 11z"/>
<path d="M397 233 c-2 -27 -8 -58 -12 -70 -4 -14 -3 -23 3 -23 14 0 32 56 32
101 0 55 -17 48 -23 -8z"/>
</g>
</svg>
