<?xml version="1.0" encoding="utf-8"?>
<!-- Generator: Adobe Illustrator 20.1.0, SVG Export Plug-In . SVG Version: 6.00 Build 0)  -->
<svg version="1.1" id="Layer_1" xmlns="http://www.w3.org/2000/svg" xmlns:xlink="http://www.w3.org/1999/xlink" x="0px" y="0px"
	 viewBox="0 0 48 48" style="enable-background:new 0 0 48 48;" xml:space="preserve">
<style type="text/css">
	.st0{fill:#2A85B3;}
</style>
<g transform="translate(0.000000,44.000000) scale(0.100000,-0.100000)">
	<path class="st0" d="M237.5,261.3c-66.6-27.6-121.2-51.5-121.2-53.6s20.8-12,46.8-21.3l46.8-17.7V126c0-23.9,2.1-43.2,4.2-43.2
		s12,14,21.8,30.7l18.2,30.7l32.8-18.2c18.2-9.9,33.8-17.2,34.9-16.1c2.1,2.1,33.3,143.6,41.1,185.2c1.6,8.8,1,16.6-1,16.6
		S303.5,288.8,237.5,261.3z M297.8,256.1c-21.3-19.8-48.9-45.3-61.9-57.2l-23.4-21.3L181.8,190c-17.2,6.8-33.8,12.5-38,12.5
		c-14,0-6.2,8.8,13,15.1c10.4,3.1,53.1,20.8,94.7,39s77.5,33.3,80.1,33.8C334.2,290.4,318.6,275.3,297.8,256.1z M348.3,269.1
		c-3.6-12.5-12.5-49.9-19.2-83.2c-6.8-33.8-13.5-61.4-15.1-61.4c-6.8,0-85.8,45.8-84.8,49.4c0.5,2.6,122.3,117,124.9,117
		C354,290.9,351.4,281,348.3,269.1z M236.4,154.1c6.8-5.7,6.8-8.3-4.2-27.1l-12-20.8v27.6C220.3,161.9,222.4,165,236.4,154.1z"/>
</g>
</svg>
